<svg width="597" height="525" viewBox="0 0 597 525" fill="none" xmlns="http://www.w3.org/2000/svg">
<g clip-path="url(#clip0_209_98)">
<path fill-rule="evenodd" clip-rule="evenodd" d="M296.185 57.0942C433.362 172.893 577.358 128.514 593.503 261.79C610.654 403.454 564.777 318.2 454.284 406.583C293.026 535.59 50.8866 490.58 41.9194 260.443C35.9508 107.126 187.2 -34.9018 296.185 57.0942Z" fill="#DBE8F7"/>
<path d="M5.1672 367.669C6.37615 364.988 7.09962 362.251 8.52562 359.991C10.1344 357.788 12.8398 356.088 15.6366 357.085C28.1621 361.146 40.7562 361.054 47.5359 350.697C47.4892 350.854 47.4705 351.019 47.4807 351.183C47.4807 351.333 47.6711 351.392 47.8158 351.39C47.9719 351.692 48.5488 351.926 48.8534 352.075C50.4374 352.784 52.2251 352.852 53.9481 352.646C56.1242 352.288 57.8929 350.842 59.7873 349.788C61.0102 349.054 62.3006 348.439 63.6407 347.952C63.6715 348.658 63.5984 349.364 63.4237 350.049C63.3882 350.038 63.3509 350.036 63.3144 350.042C63.2779 350.047 63.2431 350.061 63.2124 350.081C61.6893 352.16 58.5231 352.806 55.8767 354.323C53.6188 355.412 51.7625 357.131 50.1804 359.088C48.6863 360.838 47.4666 362.805 46.563 364.921C44.4383 369.524 43.8652 374.623 43.6215 379.628C43.6044 380.628 43.0942 385.999 44.7791 385.13C46.3936 383.382 47.2541 381.191 49.0171 380.047C54.1576 376.407 60.5641 375.854 65.1124 371.365C69.6817 366.64 72.9982 357.538 67.3361 352.454C66.4977 351.734 65.5368 351.171 64.4994 350.792C64.309 350.733 64.1948 350.643 64.012 350.584C64.2698 349.636 64.3802 348.654 64.3394 347.672C65.4164 347.338 66.538 347.171 67.6655 347.177C69.3295 347.156 71.0582 347.407 72.6898 347.024C75.498 346.415 77.7103 344.053 78.4947 341.286C78.7251 340.404 79.0754 339.308 79.0659 338.248C80.4709 339.352 81.9978 340.394 83.7304 340.949C86.2225 341.646 89.3372 341.33 90.3025 338.471C90.8851 336.646 90.4377 334.742 90.2644 332.926C90.0988 331.716 90.47 329.922 90.6947 328.434C90.8158 329.113 91.0708 329.761 91.4448 330.34C91.9075 331.092 92.431 331.813 92.9546 332.535C92.6995 336.478 92.6614 340.842 94.8242 344.303C89.4534 343.489 88.2559 352.117 80.7565 347.899C79.7817 347.486 77.1544 345.486 76.8136 347.341C76.7298 347.912 76.9773 348.398 77.1658 348.911C77.6628 350.181 78.349 351.368 79.201 352.433C81.7827 355.524 86.2301 357.803 90.2435 356.725C91.6619 356.374 92.9813 355.236 93.8494 354.56C94.8861 353.821 96.0349 353.254 97.2516 352.881C99.7267 352.063 102.392 351.758 104.58 350.403C105.085 350.071 105.548 349.679 105.958 349.235C106.316 351.261 107.702 353.214 110.691 355.027C114.744 357.123 118.756 358.266 122.006 361.619C122.556 362.097 123.666 363.66 124.403 364.498C125.324 365.548 125.983 365.055 126.181 363.81C127.575 358.973 127.814 353.666 125.577 349.025C124.549 346.584 122.88 343.785 122.217 341.61C121.798 339.615 121.836 338.069 121.966 335.946C122.233 332.888 123.146 329.922 124.646 327.245C125.179 326.208 125.979 325.259 126.64 324.312C128.125 326.9 128.408 330.26 127.864 332.905C127.001 336.703 124.871 340.699 126.493 344.591C127.152 346.46 128.412 348.174 130.417 348.663C131.512 349.014 132.723 349.001 133.789 349.441C134.398 349.66 134.981 349.948 135.525 350.3L135.797 350.388C135.85 350.373 135.899 350.348 135.941 350.313C135.984 350.278 136.018 350.236 136.043 350.187C136.068 350.138 136.083 350.085 136.087 350.03C136.09 349.976 136.082 349.921 136.064 349.87C136.542 349.317 136.884 347.615 137.092 347.28C139.525 340.61 143.23 336.568 140.709 328.716C140.401 327.716 140.025 326.739 139.584 325.791C140.279 325.661 140.942 325.47 141.637 325.341C145.41 324.388 149.41 324.609 152.645 326.601C153.711 327.195 155.144 328.057 155.788 328.716C156.186 329.044 156.405 329.617 156.93 329.732C157.928 329.598 157.096 328.276 157.027 327.7C156.142 324.651 155.683 321.686 155.828 318.713C155.855 313.438 158.735 308.675 160.186 303.505C161.222 299.005 160.315 294.138 158.206 290.041C155.263 284.468 148.709 281.063 142.56 283.319L141.608 283.817C139.361 280.935 136.007 279.005 132.57 277.804C130.381 276.952 128.075 276.617 125.855 275.854C121.901 274.387 117.273 272.201 113.549 274.732C113.606 274.541 113.695 274.427 113.726 274.336C116.1 270.366 116.224 265.569 116.654 261.085C116.739 258.899 117.109 256.734 117.756 254.645C117.76 254.654 117.766 254.661 117.772 254.667C117.779 254.673 117.787 254.677 117.796 254.68C117.804 254.683 117.813 254.683 117.822 254.682C117.831 254.681 117.84 254.678 117.848 254.674C119.268 254.483 120.61 255.309 122.248 255.53C123.728 255.675 125.217 255.698 126.701 255.598C127.043 256.412 127.386 257.226 127.91 257.948C129.141 259.598 130.821 260.791 132.709 261.647C136.94 263.505 138.864 259.844 140.706 256.761C141.389 255.722 142.562 255.046 143.731 254.056C144.901 253.085 145.865 251.888 146.566 250.537C147.691 248.44 148.089 245.789 147.137 243.529C146.453 242.052 144.871 241.494 143.413 241.027C141.162 240.358 138.889 240.074 136.698 239.23C135.118 238.673 133.684 237.812 132.012 237.377C130.737 236.968 129.347 237.076 128.045 237.214C126.653 237.52 125.235 237.69 123.811 237.719C124.616 234.254 125.267 230.488 127.329 228.129C129.149 225.895 131.862 224.952 134.617 224.828C135.026 224.779 135.442 224.826 135.83 224.965C137.006 227.102 138.495 229.236 140.917 229.964C142.651 230.671 144.826 230.311 146.143 229.023C146.36 228.753 146.54 228.455 146.678 228.136C147.719 231.639 149.915 233.553 153.734 233.265C154.794 233.251 155.828 233.027 156.879 232.863C157.302 232.796 157.785 232.699 158.115 232.453C158.836 231.929 158.912 230.738 158.149 230.301C157.054 229.798 155.727 230.33 154.609 230.526C153.372 230.784 152.589 231.186 151.645 230.835C150.185 230.216 148.894 228.594 147.607 227.428C149.57 226.949 151.314 225.903 152.445 224.247C153.699 222.838 155.11 222.185 157.014 221.737C158.796 221.356 160.729 220.813 161.951 219.343C163.678 216.927 163.693 213.108 161.397 211.013C157.97 207.903 153.901 209.773 154.019 214.444C154.006 215.9 154.21 217.775 153.89 218.779C153.421 220.089 152.283 221.133 150.809 221.969C149.576 222.53 148.311 223.182 147.476 224.222C147.464 220.792 145.083 219.13 142.208 216.79C139.9 214.933 137.247 213.553 134.402 212.732C133.246 212.414 131.938 211.943 130.733 212.414C129.438 213.005 129.73 214.608 130.438 215.539C131.921 217.977 134.847 219.517 135.007 222.03C135.165 222.484 134.931 223.214 135.007 223.789C132.068 223.704 128.993 224.832 127.022 227.067C124.302 229.926 123.835 233.896 122.971 237.549C120.61 237.699 118.188 237.74 115.83 238.031C115.74 238.001 115.679 238.031 115.59 238.155C115.498 238.126 115.399 238.096 115.348 238.128C115.274 238.155 115.209 238.2 115.158 238.26C115.107 238.32 115.073 238.392 115.059 238.469C115.044 238.546 115.05 238.625 115.076 238.699C115.101 238.773 115.146 238.839 115.205 238.891C117.474 240.043 119.447 241.704 120.97 243.745C119.415 247.825 117.494 251.789 116.486 256.044C115.481 260.603 115.875 265.659 114.655 269.796C114.135 271.892 113.183 273.299 112.298 275.281C112.387 275.159 112.269 275.372 112.151 275.586C111.892 275.847 111.689 276.159 111.555 276.502L111.466 276.472C106.815 274.983 102.164 278.526 98.2131 279.877C96.9165 280.318 95.4963 280.516 94.4377 280.68C93.2954 280.815 90.0588 280.886 92.3435 282.524C94.6624 284.072 97.2212 285.345 99.483 287.075C100.77 288.242 101.971 289.985 102.839 291.672C105.168 296.341 106.958 301.593 110.276 305.675C110.246 305.774 110.246 305.88 110.276 305.978C111.672 308.69 110.405 311.555 107.668 313.043C106.404 313.695 104.431 313.87 102.908 314.737C98.5291 312.881 93.7485 316.031 91.3706 319.692C90.4529 321.463 90.1445 323.527 90.0779 325.467C90.075 326.063 90.1023 326.66 90.1597 327.254C90.0578 327.12 89.923 327.014 89.7682 326.947C89.6133 326.88 89.4439 326.855 89.2763 326.873C87.7056 327.075 86.6737 329.35 86.0397 330.065C85.2039 331.106 83.816 331.515 82.548 331.714C84.1073 327.936 84.7166 323.351 84.8041 320.563C84.7927 319.654 85.0231 318.619 84.8917 317.773C84.9492 317.747 85.0003 317.709 85.0414 317.661C85.0825 317.614 85.1126 317.557 85.1297 317.497C85.2154 316.925 86.5367 316.087 87.1002 315.109C87.7818 313.918 87.9779 312.523 87.9608 311.158C88.1073 308.338 86.9555 305.654 85.202 303.432C83.5381 301.088 80.528 299.973 78.4243 298.847C75.5285 297.216 73.1734 295.304 72.0768 292.286C71.5928 290.908 71.4097 289.443 71.5399 287.988C71.8502 286.083 71.7303 283.016 69.002 283.504C65.1848 285.701 65.3257 294.855 66.31 298.691C67.7131 304.524 70.1272 311.284 69.1943 316.721C68.8516 318.423 68.1091 319.645 66.8982 319.658C66.8069 319.629 66.7459 319.658 66.6545 319.631C65.4094 316.773 63.7987 314.089 62.1348 311.437C62.011 311.194 61.8587 311.055 61.733 310.804C62.329 309.887 62.8925 308.911 63.2124 307.907C63.7 306.599 64.0491 305.244 64.2538 303.863C64.5831 303.617 64.3947 302.952 64.3585 302.588C64.1852 300.772 63.258 299.116 62.5403 297.427C61.358 294.836 61.2933 291.901 60.1681 289.122C58.6792 286.073 55.7111 283.569 52.2861 283.277C52.0135 283.245 51.7374 283.258 51.4693 283.317C51.1248 281.073 50.9757 278.803 51.0238 276.533C52.6516 275.997 54.1214 274.858 54.7059 273.184C55.0432 272.441 55.1998 271.629 55.1628 270.814C57.0343 270.307 59.0524 269.495 59.8482 267.635C60.0234 267.088 60.1985 266.541 60.3128 266.023C60.7713 266.92 61.3518 267.75 62.0377 268.489C64.5127 270.64 66.9877 267.155 68.1148 265.201C69.7179 262.545 73.2039 260.437 74.2529 257.007C75.4238 253.658 75.0411 249.511 72.5242 246.845C70.8373 245.046 68.5261 243.796 66.0929 243.224C64.2512 242.944 62.3681 243.177 60.6497 243.897L60.5888 243.927C59.1796 243.033 57.5714 242.501 55.9072 242.378C53.4817 242.106 51.2237 243.194 48.901 243.859C48.2461 244.007 47.5713 244.045 46.9038 243.973L46.8124 243.945C46.7377 243.907 46.6521 243.897 46.5706 243.916C45.5749 241.837 44.5811 239.758 43.7148 237.616C42.9666 235.868 42.1917 234.058 41.4702 232.219C42.5244 232.362 43.5973 232.276 44.6154 231.967C46.2755 231.492 47.5568 229.84 47.414 228.085C47.3112 226.995 46.7534 225.911 46.8029 225.122C46.7648 224.455 47.3341 223.932 47.8367 222.987C48.5983 221.371 47.7948 219.502 46.9 218.059C45.3883 215.713 42.346 214.537 39.5663 215.055C38.5687 215.189 37.87 215.015 36.9885 214.785C38.7248 213.127 39.235 210.27 40.5468 208.526C40.8441 208.15 41.1741 207.802 41.533 207.484C41.5093 207.566 41.5115 207.654 41.5394 207.735C41.5674 207.817 41.6197 207.887 41.6891 207.937C41.6987 208.077 41.7425 208.212 41.8167 208.33C42.5269 211.029 43.7935 213.55 45.5349 215.73C46.8676 217.563 48.7544 219.025 51.0866 219.118C52.3317 219.309 53.4741 218.724 54.466 218.137C55.5797 217.487 56.7221 216.896 57.8663 216.308C59.3149 215.577 60.9479 215.295 62.5573 215.497C64.1667 215.698 65.6797 216.375 66.904 217.44C67.7283 218.011 68.3775 219.12 69.2648 219.957C69.3173 220.048 69.3995 220.117 69.4973 220.154C69.5952 220.191 69.7028 220.193 69.8021 220.16C69.9013 220.127 69.9861 220.061 70.0422 219.972C70.0983 219.884 70.1223 219.779 70.1101 219.675C70.0453 219.402 69.7712 219.162 69.6474 218.913C68.0748 216.597 66.9173 213.611 65.16 211.086C62.8754 207.846 60.387 204.477 57 202.335C54.7439 201.06 52.0747 200.606 49.5007 200.639C48.2208 200.659 46.9629 200.975 45.8249 201.561C44.687 202.148 43.6997 202.99 42.94 204.021C42.452 204.747 42.0675 205.537 41.7976 206.369C41.689 206.414 41.5953 206.489 41.5273 206.584C39.3359 208.098 38.879 210.466 37.7538 212.572C37.1617 213.639 36.7162 214.251 35.8499 214.777L35.6082 214.901C34.1517 209.554 32.9427 204.082 33.3235 198.775C33.3414 198.499 33.3783 198.224 33.4339 197.953C33.8614 197.922 34.286 197.858 34.7038 197.763C36.244 197.349 37.1351 195.975 37.571 194.454C38.2736 192.415 38.3326 190.02 37.0113 188.186C36.7943 187.918 36.4554 187.405 36.1203 187.197C36.1591 187.09 36.1784 186.977 36.1774 186.864C37.2436 187.456 38.2983 186.99 39.1684 186.311L39.1989 186.372C39.5968 186.7 40.2003 186.542 40.6553 186.688C41.0818 186.774 42.2641 187.001 42.6315 187.26C43.7891 187.883 44.2841 188.695 45.0533 189.738C45.7318 190.603 46.6281 191.272 47.6501 191.676C49.9062 192.8 52.6307 192.768 53.8339 194.662C54.7858 196.074 55.4236 198.34 56.6897 199.901C57.3671 200.753 58.1273 201.536 58.9591 202.237C59.3875 202.619 59.911 203.045 60.4822 203.129C61.9672 203.202 61.1314 201.727 60.8801 200.942C60.507 199.839 60.2992 198.688 60.2633 197.525C60.1795 195.584 61.2799 193.875 61.2152 191.693C61.3142 189.964 60.7811 188.333 59.9453 186.858C58.9264 184.847 57.454 183.101 55.6445 181.758C54.3398 180.807 52.8443 180.152 51.2616 179.836C49.6788 179.52 48.0464 179.553 46.4773 179.931C44.9695 180.403 43.7091 181.358 42.4792 182.218C40.6477 183.552 38.8295 185.93 37.2588 186.13C36.6877 186.199 36.6877 186.046 36.1641 185.779C36.5601 183.441 36.8343 181.164 37.2303 178.825C37.512 177.156 38.3726 175.115 39.4959 173.312C39.5853 173.341 39.6463 173.312 39.7662 173.249C40.9085 172.508 42.4906 173.215 44.2536 173.678C47.4083 174.187 50.7096 174.236 50.6601 170.145C50.6449 168.933 50.5364 167.389 50.7668 166.507C51.1475 165.018 51.6368 163.314 50.862 161.809C52.1223 160.852 53.4138 159.957 54.7363 159.124C56.9813 157.759 59.3627 156.633 61.8416 155.764C62.7554 156.208 63.6712 156.803 64.6707 156.972C66.6146 157.353 69.1543 157.1 70.7917 157.323C72.766 157.754 74.0815 158.828 75.9683 159.684C77.9464 160.418 80.1568 159.966 82.2092 159.972C82.8755 159.934 84.3301 160.098 83.7132 159.044C80.0578 154.754 76.0083 150.439 70.7136 148.292C66.9059 146.822 60.6231 147.323 59.4636 152.034C59.4808 153.399 60.0348 154.321 60.2252 155.449C59.5686 155.698 58.9249 155.979 58.2966 156.292C55.5038 157.607 52.8633 159.225 50.4222 161.115C49.6435 159.93 48.4498 158.939 47.2903 158.177C46.0071 157.313 44.7562 156.509 43.2655 155.983C40.3469 154.897 37.0989 156.724 34.8085 157.752C33.8971 158.198 32.8951 158.428 31.8804 158.424C31.0636 158.464 30.1536 158.323 29.4929 158.817C28.3506 159.709 28.6152 161.403 29.2054 162.548C29.6091 163.332 30.462 163.806 31.254 164.161C32.501 164.66 34.6181 164.483 35.5282 164.624C36.6819 164.791 37.4435 165.237 38.0032 166.019C38.235 166.377 38.3463 166.801 38.3212 167.227C38.2698 168.016 38.0375 168.752 38.0451 169.502C37.9366 170.474 38.3421 171.408 38.8961 172.191C38.9459 172.297 39.0195 172.389 39.1113 172.46C37.8338 174.415 36.859 176.519 36.463 178.858C36.0118 181.526 35.7395 184.11 35.2255 186.671C35.1058 186.588 34.9715 186.528 34.8295 186.494C31.7547 185.107 27.6195 181.215 23.7413 183.445C21.8736 184.257 20.5048 186.334 19.1854 187.319C16.6037 189.109 13.7936 189.719 10.9302 188.299C8.61891 187.357 8.00206 188.972 9.2053 190.866C10.1572 192.28 11.5071 193.414 12.9731 194.336C14.1325 195.11 15.3815 195.762 16.836 195.775C19.0445 195.626 21.4243 194.632 23.1835 194.94C24.8532 195.222 26.4068 196.023 27.9889 196.579C29.3863 197.077 30.9665 197.483 32.5106 197.532C32.4548 197.802 32.4179 198.076 32.4001 198.352C32.1907 201.052 32.4363 203.747 32.8323 206.44C33.2854 208.949 33.8318 211.488 34.4982 213.965C33.6764 213.615 32.7732 213.5 31.8899 213.634C30.1974 213.897 28.8171 214.914 27.2502 215.57C25.8032 216.163 23.5662 216.403 22.5819 215.233C21.5081 214.032 20.7313 212.374 19.0902 211.85C17.8146 211.593 17.9859 213.256 18.0259 214.076C18.0735 215.499 18.7551 216.824 19.4672 218.059C20.6155 220.081 22.2111 221.814 24.1316 223.124C26.4829 224.733 28.7009 225.493 31.0808 226.86C32.9732 228.169 34.839 229.718 37.0303 230.576C38.1159 231.048 39.2461 231.41 40.404 231.656C40.9656 233.044 41.5597 234.49 42.1175 235.878C44.1413 240.552 46.4069 244.949 48.0366 249.599C45.1237 249.119 42.2127 248.791 39.4692 247.312C37.9461 246.573 35.9661 245.536 34.3459 244.314C32.4515 242.851 28.6552 239.472 27.431 243.306C26.9703 245.374 27.7852 247.545 28.9541 249.229C30.5838 251.36 32.699 253.397 33.6948 255.627C35.6405 261.333 36.9313 267.984 41.7405 272.441C43.6444 274.208 45.7234 276.182 48.4212 276.392C48.9804 276.41 49.5396 276.353 50.0833 276.22C50.0566 276.464 50.0833 276.676 50.0623 276.918C50.0858 278.898 50.2614 280.873 50.5878 282.826C46.1118 283.304 41.9062 286.084 39.0713 289.452C35.8338 293.73 33.2387 298.458 31.3682 303.488C30.7838 305.313 29.6262 307.208 30.2259 309.11C30.759 310.739 32.5601 311.869 34.2869 311.968C35.5891 311.982 36.7924 311.362 38.0299 310.952C38.5021 310.774 38.9855 310.626 39.4768 310.51C39.2763 311.945 38.7206 313.306 37.8604 314.47C36.581 316.275 34.6048 318.208 33.512 320.525C32.4095 319.865 31.176 319.455 29.8981 319.323C28.6203 319.192 27.3292 319.342 26.1155 319.763C22.9493 320.862 20.8037 323.647 18.4067 325.796C16.9407 327.239 15.8917 328.161 13.8374 328.464C11.9945 328.729 8.93114 328.403 6.7931 329.126C4.59032 329.728 3.06723 331.506 2.18193 333.486C-0.272159 338.334 -0.0208479 344 0.0419798 349.304C0.255213 354.302 0.194289 359.364 0.980587 364.296C1.36136 366.08 1.55175 368.199 2.29045 369.796C3.73168 371.689 4.78071 368.251 5.1672 367.669ZM121.831 244.831C122.697 246.355 123.354 247.933 124.098 249.53C124.812 250.916 125.555 252.212 126.147 253.658C126.347 254.067 126.515 254.49 126.647 254.926C125.012 255.006 123.196 255.028 121.888 254.71C120.764 254.451 119.637 253.889 118.461 253.965C118.412 253.981 118.359 253.981 118.31 253.965C119.27 250.954 120.597 247.907 121.831 244.831ZM112.772 276.948C112.97 276.831 113.119 276.646 113.191 276.428C116.33 273.207 120.559 274.762 125.122 276.525C127.978 277.642 131.043 277.968 133.815 279.208C136.1 280.089 138.722 281.785 140.289 283.342C140.626 283.664 140.934 284.015 141.208 284.392C138.714 285.917 136.774 288.204 135.961 291.062C134.204 295.933 134.27 301.544 133.145 306.161C132.193 309.477 130.67 312.466 128.386 314.949C126.625 312.121 123.841 312.336 120.886 313.251C119.407 313.632 118.287 313.822 117.551 312.99C116.999 312.359 116.656 311.545 116.218 310.703C116.431 310.823 116.705 310.911 116.919 311.029C118.442 311.465 120.1 311.294 121.612 310.972C124.959 309.931 126.396 306.064 126.843 302.937C126.914 302.047 126.768 301.154 126.417 300.334C127.008 300.241 127.58 300.048 128.106 299.762C129.219 299.112 130.053 298.072 130.828 297.061C132.675 294.433 133.088 291.095 132.325 287.981C130.701 281.425 125.28 279.338 119.045 279.201C116.924 279.075 114.643 278.195 112.422 277.282C112.682 277.07 112.709 276.979 112.772 276.948ZM105.242 315.139C106.781 314.726 108.351 314.377 109.551 313.298C110.86 312.147 111.693 310.548 111.887 308.814C111.916 308.325 111.87 307.835 111.75 307.36C111.902 307.511 112.054 307.659 112.239 307.871C111.599 310.03 111.415 312.336 111.287 314.61C111.243 315.854 111.317 317.036 111.847 318.211C111.877 318.271 111.816 318.301 111.847 318.362C112.964 320.683 115.352 322.806 116.524 324.639C117.857 327.231 116.778 330.456 115.106 332.537C113.286 334.772 111.007 336.558 108.823 338.525L108.732 338.344C108.358 337.647 107.857 337.026 107.256 336.512C104.991 334.479 101.869 334.183 99.6981 332.484C98.7195 331.767 98.2797 330.469 98.8452 329.644C98.9061 329.613 98.9346 329.522 98.9956 329.49C99.3249 329.244 99.6867 329.057 100.016 328.811C102.632 327.233 105.452 325.169 105.96 322.01C106.137 320.435 106.087 318.843 105.811 317.283C105.661 316.559 105.471 315.843 105.242 315.139ZM49.1199 334.098C49.3858 334.01 49.6592 333.946 49.9367 333.907C50.8125 333.837 51.2694 333.981 52.1509 334.214C54.3689 334.976 56.7506 336.501 59.2142 337.433C59.1533 337.463 59.1533 337.463 59.1247 337.555C58.4831 339.563 57.0153 340.854 54.7801 341.397C52.9676 341.721 51.6197 342.95 50.6392 344.446C50.3764 344.806 50.1379 345.184 49.9253 345.576C50.1309 344.936 50.3936 344.267 50.5992 343.626C51.0715 341.846 51.152 339.983 50.8353 338.168C50.5764 336.777 49.9233 335.361 49.1199 334.098ZM38.9323 315.49C39.9147 314.145 40.3507 312.631 40.5734 310.985C41.118 310.855 41.691 310.794 42.1746 310.691C44.9866 310.385 47.3284 311.084 49.4683 312.877C51.0904 314.251 52.981 315.41 55.1323 315.444C57.7635 315.231 59.9567 313.729 61.5065 311.699C63.5741 314.977 65.5522 318.229 66.9611 322C67.7417 323.959 68.2481 325.833 68.7869 327.767C68.2971 328.03 67.7368 328.132 67.1857 328.058C66.1538 327.98 64.6326 327.241 63.378 326.892C59.4579 325.789 55.317 326.32 51.5169 327.521C49.6473 328.18 47.6654 329.509 46.1861 329.737C46.0133 329.736 45.8408 329.749 45.6701 329.775C42.6087 329.448 39.5073 328.304 37.7481 325.627C36.9161 324.455 36.2936 323.1 35.1931 322.143C34.9475 321.964 34.7038 321.785 34.4316 321.546C35.5587 319.441 37.3559 317.752 38.9323 315.49Z" fill="url(#paint0_linear_209_98)"/>
<path fill-rule="evenodd" clip-rule="evenodd" d="M61.4759 395.924C62.1518 400.707 64.3983 405.622 67.475 410.377C71.4331 416.476 76.6326 422.383 80.6688 427.403C84.2195 431.912 87.972 436.202 91.8674 440.337C95.7627 444.473 99.8769 448.433 104.142 452.233C109.821 457.302 115.828 461.989 122.126 466.263C136.976 476.289 154.055 484.278 174.223 489.513C174.726 489.628 175.246 489.642 175.754 489.555C176.262 489.469 176.749 489.283 177.185 489.008C177.621 488.733 178 488.375 178.298 487.954C178.596 487.533 178.808 487.058 178.923 486.554C179.037 486.051 179.052 485.53 178.965 485.022C178.878 484.513 178.693 484.026 178.418 483.59C178.144 483.153 177.786 482.774 177.365 482.476C176.945 482.177 176.47 481.965 175.967 481.85C156.317 477.92 139.323 471.388 124.671 462.335C118.368 458.465 112.409 454.061 106.858 449.17C102.704 445.482 98.7856 441.536 95.1268 437.355C91.4825 433.169 88.0542 428.8 84.8554 424.264C81.2895 419.142 76.5926 413.135 73.2171 406.951C71.0657 403.004 69.5102 398.996 69.2894 395.169C69.1724 394.144 68.6577 393.206 67.8561 392.557C67.0545 391.908 66.0303 391.601 65.0043 391.701C63.9783 391.801 63.0327 392.3 62.3712 393.092C61.7097 393.883 61.3855 394.903 61.4683 395.932L61.4759 395.924Z" fill="#F5F2FD"/>
<path fill-rule="evenodd" clip-rule="evenodd" d="M177.479 20.0961C180.73 17.5329 184.39 15.5414 188.253 13.952C194.299 11.4612 200.818 9.90229 207.053 8.61591C221.504 5.67344 236.502 4.995 251.016 7.20566C265.529 9.41633 279.537 14.4837 291.993 22.8042C302.39 29.8554 311.602 38.5037 320.931 46.9576C327.26 52.7224 333.636 58.4035 340.516 63.4003C347.913 68.7917 355.877 73.4112 364.907 76.55C372.368 79.1608 379.892 80.3748 387.447 80.956C404.629 82.2748 421.983 80.1118 439.12 83.8146C446.202 85.3507 452.673 88.0397 458.752 91.4376C468.114 96.6555 476.548 103.556 484.887 110.625C485.283 110.965 485.743 111.224 486.241 111.384C486.738 111.545 487.262 111.604 487.783 111.559C488.303 111.515 488.81 111.366 489.272 111.123C489.735 110.88 490.145 110.547 490.477 110.143C490.809 109.74 491.058 109.274 491.208 108.773C491.358 108.272 491.407 107.746 491.352 107.226C491.296 106.706 491.138 106.202 490.886 105.744C490.633 105.286 490.292 104.883 489.883 104.559C480.976 97.4236 471.961 90.5057 462.05 85.3221C455.297 81.7984 448.167 79.0522 440.376 77.5752C422.88 74.2288 405.288 76.7996 387.791 75.8353C380.646 75.4427 373.512 74.4346 366.415 72.1115C357.777 69.2529 350.129 64.9859 343.014 59.9357C336.212 55.1084 329.899 49.6008 323.679 43.9465C314.224 35.3554 304.988 26.4365 294.481 19.1871C281.611 10.1767 267.035 4.63672 251.882 1.942C236.754 -0.747006 221.039 -0.571678 205.827 2.04872C199.122 3.19217 192.119 4.64434 185.566 7.07798C180.982 8.7779 176.629 10.9771 172.719 13.8434C171.891 14.4752 171.347 15.4105 171.207 16.4435C171.068 17.4766 171.344 18.5228 171.975 19.3519C172.607 20.1811 173.541 20.7253 174.573 20.8649C175.605 21.0044 176.65 20.7279 177.479 20.0961Z" fill="#F5F2FD"/>
<path fill-rule="evenodd" clip-rule="evenodd" d="M324.075 146.634C324.073 139.876 321.391 133.396 316.618 128.616C311.846 123.837 305.373 121.149 298.622 121.144H110.817C104.065 121.149 97.592 123.836 92.819 128.616C88.046 133.395 85.3638 139.876 85.3618 146.634V412.189C85.3638 418.948 88.046 425.428 92.8189 430.208C97.5918 434.988 104.065 437.676 110.817 437.681H298.622C305.373 437.675 311.846 434.987 316.618 430.208C321.391 425.428 324.073 418.947 324.075 412.189V146.634Z" fill="white"/>
<mask id="mask0_209_98" style="mask-type:luminance" maskUnits="userSpaceOnUse" x="85" y="121" width="240" height="317">
<path fill-rule="evenodd" clip-rule="evenodd" d="M324.075 146.634C324.073 139.876 321.391 133.396 316.618 128.616C311.846 123.837 305.373 121.149 298.622 121.144H110.817C104.065 121.149 97.592 123.836 92.819 128.616C88.046 133.395 85.3638 139.876 85.3618 146.634V412.189C85.3638 418.948 88.046 425.428 92.8189 430.208C97.5918 434.988 104.065 437.676 110.817 437.681H298.622C305.373 437.675 311.846 434.987 316.618 430.208C321.391 425.428 324.073 418.947 324.075 412.189V146.634Z" fill="white"/>
</mask>
<g mask="url(#mask0_209_98)">
<path fill-rule="evenodd" clip-rule="evenodd" d="M352.383 162.657V126.101C352.383 123.366 349.64 121.146 346.268 121.146H63.1721C59.8004 121.146 57.0569 123.368 57.0569 126.101V162.657C57.0569 165.394 59.8004 167.612 63.1721 167.612H346.277C349.64 167.614 352.383 165.394 352.383 162.657Z" fill="#62CEF9"/>
<path d="M111.869 150.676C115.343 150.676 118.16 147.857 118.16 144.379C118.16 140.902 115.343 138.083 111.869 138.083C108.395 138.083 105.579 140.902 105.579 144.379C105.579 147.857 108.395 150.676 111.869 150.676Z" fill="white"/>
<path d="M131.797 150.676C135.271 150.676 138.087 147.857 138.087 144.379C138.087 140.902 135.271 138.083 131.797 138.083C128.323 138.083 125.507 140.902 125.507 144.379C125.507 147.857 128.323 150.676 131.797 150.676Z" fill="white"/>
<path d="M158.948 144.917C159.504 141.475 157.166 138.233 153.727 137.676C150.288 137.12 147.049 139.46 146.493 142.902C145.937 146.345 148.275 149.587 151.714 150.143C155.153 150.7 158.392 148.36 158.948 144.917Z" fill="white"/>
</g>
<path d="M185.222 266.722C202.124 249.803 202.124 222.373 185.222 205.454C168.32 188.535 140.916 188.535 124.014 205.454C107.112 222.373 107.112 249.803 124.014 266.722C140.916 283.641 168.32 283.641 185.222 266.722Z" fill="#E3E3FE"/>
<mask id="mask1_209_98" style="mask-type:luminance" maskUnits="userSpaceOnUse" x="111" y="192" width="87" height="88">
<path d="M185.222 266.722C202.124 249.803 202.124 222.372 185.222 205.453C168.32 188.535 140.916 188.535 124.014 205.453C107.112 222.372 107.112 249.803 124.014 266.722C140.916 283.641 168.32 283.641 185.222 266.722Z" fill="white"/>
</mask>
<g mask="url(#mask1_209_98)">
<path fill-rule="evenodd" clip-rule="evenodd" d="M111.685 257.578C132.905 223.824 142.704 221.994 154.611 235.415C166.518 248.835 170.175 252.78 183.792 246.588C197.408 240.396 203.739 247.106 207.933 256.357C212.127 265.607 156.072 290.925 145.705 290.721C135.338 290.517 90.4509 291.331 111.685 257.578Z" fill="url(#paint1_linear_209_98)"/>
</g>
<path d="M178.988 227.626C187.388 227.626 194.196 220.81 194.196 212.403C194.196 203.995 187.388 197.18 178.988 197.18C170.589 197.18 163.78 203.995 163.78 212.403C163.78 220.81 170.589 227.626 178.988 227.626Z" fill="url(#paint2_linear_209_98)"/>
<path fill-rule="evenodd" clip-rule="evenodd" d="M196.175 313.735C196.175 313.233 196.076 312.736 195.884 312.273C195.691 311.81 195.41 311.389 195.055 311.035C194.7 310.681 194.278 310.4 193.815 310.21C193.351 310.019 192.855 309.922 192.354 309.923H123.752C122.742 309.923 121.773 310.325 121.059 311.04C120.345 311.755 119.944 312.724 119.944 313.735C119.944 314.746 120.345 315.715 121.059 316.43C121.773 317.145 122.742 317.546 123.752 317.546H192.348C192.849 317.548 193.346 317.451 193.809 317.26C194.273 317.069 194.694 316.789 195.049 316.435C195.404 316.081 195.686 315.66 195.878 315.197C196.07 314.733 196.169 314.237 196.169 313.735H196.175Z" fill="#E3F5FE"/>
<path fill-rule="evenodd" clip-rule="evenodd" d="M312.751 243.262C312.749 240.211 311.536 237.285 309.379 235.128C307.222 232.971 304.298 231.76 301.249 231.761H221.883C220.374 231.761 218.881 232.059 217.487 232.637C216.094 233.215 214.828 234.062 213.761 235.13C212.695 236.199 211.85 237.466 211.273 238.862C210.697 240.257 210.401 241.752 210.402 243.262C210.401 244.772 210.697 246.267 211.274 247.663C211.85 249.058 212.695 250.326 213.762 251.394C214.828 252.462 216.094 253.309 217.487 253.887C218.881 254.465 220.374 254.762 221.883 254.762H301.249C304.298 254.763 307.222 253.553 309.379 251.396C311.536 249.24 312.749 246.314 312.751 243.262Z" fill="#EFFAFE"/>
<path fill-rule="evenodd" clip-rule="evenodd" d="M191.405 367.008C191.405 365.997 191.004 365.028 190.29 364.313C189.576 363.598 188.608 363.197 187.598 363.197H121.632C120.623 363.197 119.654 363.598 118.94 364.313C118.226 365.028 117.825 365.997 117.825 367.008C117.825 368.019 118.226 368.989 118.94 369.703C119.654 370.418 120.623 370.82 121.632 370.82H187.598C188.608 370.82 189.576 370.418 190.29 369.703C191.004 368.989 191.405 368.019 191.405 367.008Z" fill="#E3F5FE"/>
<path fill-rule="evenodd" clip-rule="evenodd" d="M281.517 366.577C281.517 365.566 281.116 364.597 280.402 363.882C279.688 363.167 278.72 362.766 277.71 362.766H211.745C210.735 362.766 209.766 363.167 209.052 363.882C208.338 364.597 207.937 365.566 207.937 366.577C207.937 367.588 208.338 368.558 209.052 369.272C209.766 369.987 210.735 370.389 211.745 370.389H277.712C278.722 370.389 279.69 369.987 280.404 369.272C281.118 368.558 281.519 367.588 281.519 366.577H281.517Z" fill="#E3F5FE"/>
<path fill-rule="evenodd" clip-rule="evenodd" d="M281.515 327.904C281.518 327.403 281.421 326.906 281.23 326.443C281.04 325.979 280.759 325.558 280.406 325.204C279.685 324.487 278.71 324.085 277.694 324.085H123.774C122.758 324.085 121.784 324.487 121.063 325.204C120.709 325.558 120.429 325.979 120.239 326.443C120.048 326.906 119.951 327.403 119.953 327.904C119.952 328.405 120.049 328.902 120.24 329.365C120.43 329.828 120.71 330.25 121.063 330.605C121.785 331.32 122.759 331.721 123.774 331.721H277.694C278.71 331.721 279.684 331.32 280.406 330.605C280.759 330.25 281.039 329.828 281.229 329.365C281.42 328.902 281.517 328.405 281.515 327.904Z" fill="#E3F5FE"/>
<path fill-rule="evenodd" clip-rule="evenodd" d="M191.405 381.176C191.405 380.165 191.004 379.195 190.29 378.48C189.576 377.766 188.608 377.364 187.598 377.364H121.632C120.623 377.364 119.654 377.766 118.94 378.48C118.226 379.195 117.825 380.165 117.825 381.176C117.825 382.186 118.226 383.156 118.94 383.871C119.654 384.585 120.623 384.987 121.632 384.987H187.598C188.608 384.987 189.576 384.585 190.29 383.871C191.004 383.156 191.405 382.186 191.405 381.176Z" fill="#E3F5FE"/>
<path fill-rule="evenodd" clip-rule="evenodd" d="M281.517 380.745C281.517 379.734 281.116 378.765 280.402 378.05C279.688 377.335 278.72 376.933 277.71 376.933H211.745C210.735 376.933 209.766 377.335 209.052 378.05C208.338 378.765 207.937 379.734 207.937 380.745C207.937 381.756 208.338 382.725 209.052 383.44C209.766 384.155 210.735 384.556 211.745 384.556H277.712C278.722 384.556 279.69 384.155 280.404 383.44C281.118 382.725 281.519 381.756 281.519 380.745H281.517Z" fill="#E3F5FE"/>
<path fill-rule="evenodd" clip-rule="evenodd" d="M281.516 342.931C281.517 342.43 281.42 341.934 281.23 341.471C281.039 341.008 280.759 340.587 280.406 340.232C279.685 339.516 278.71 339.114 277.694 339.114H123.774C122.758 339.114 121.784 339.516 121.063 340.232C120.709 340.587 120.429 341.008 120.239 341.471C120.048 341.934 119.951 342.43 119.953 342.931C119.951 343.432 120.048 343.928 120.239 344.391C120.429 344.854 120.709 345.275 121.063 345.629C121.784 346.346 122.758 346.748 123.774 346.748H277.694C278.71 346.748 279.685 346.346 280.406 345.629C280.759 345.275 281.039 344.854 281.23 344.391C281.42 343.928 281.517 343.432 281.516 342.931Z" fill="#E3F5FE"/>
<path fill-rule="evenodd" clip-rule="evenodd" d="M191.405 396.204C191.405 395.193 191.004 394.224 190.29 393.509C189.576 392.794 188.608 392.393 187.598 392.393H121.632C120.623 392.393 119.654 392.794 118.94 393.509C118.226 394.224 117.825 395.193 117.825 396.204C117.825 397.215 118.226 398.184 118.94 398.899C119.654 399.614 120.623 400.016 121.632 400.016H187.598C188.608 400.016 189.576 399.614 190.29 398.899C191.004 398.184 191.405 397.215 191.405 396.204Z" fill="#E3F5FE"/>
<path fill-rule="evenodd" clip-rule="evenodd" d="M281.517 395.773C281.517 394.763 281.116 393.793 280.402 393.078C279.688 392.363 278.72 391.962 277.71 391.962H211.745C210.735 391.962 209.766 392.363 209.052 393.078C208.338 393.793 207.937 394.763 207.937 395.773C207.937 396.784 208.338 397.754 209.052 398.469C209.766 399.183 210.735 399.585 211.745 399.585H277.712C278.722 399.585 279.69 399.183 280.404 398.469C281.118 397.754 281.519 396.784 281.519 395.773H281.517Z" fill="#E3F5FE"/>
<path fill-rule="evenodd" clip-rule="evenodd" d="M472.997 165.975C488.074 165.975 499.065 179.87 496.921 198.733C495.398 212.098 479.099 226.016 462.971 232.684C449.043 238.447 448.969 217.365 448.969 198.38C448.969 179.395 457.932 165.975 472.997 165.975Z" fill="url(#paint3_linear_209_98)"/>
<path fill-rule="evenodd" clip-rule="evenodd" d="M461.498 266.291C475.994 299.909 378.87 407.616 346.491 404.852C314.112 402.089 267.2 249.652 267.2 249.652L253.555 231.763L289.552 236.324L287.046 241.216C287.046 241.216 337.813 329.68 351.61 336.312C358.464 339.609 376.361 285.459 414.314 263.928C455.71 240.459 453.208 247.063 461.498 266.291Z" fill="url(#paint4_linear_209_98)"/>
<mask id="mask2_209_98" style="mask-type:luminance" maskUnits="userSpaceOnUse" x="253" y="231" width="210" height="174">
<path fill-rule="evenodd" clip-rule="evenodd" d="M461.498 266.291C475.994 299.909 378.87 407.616 346.491 404.852C314.112 402.089 267.2 249.652 267.2 249.652L253.555 231.763L289.552 236.324L287.046 241.216C287.046 241.216 337.813 329.68 351.61 336.312C358.464 339.609 376.361 285.459 414.314 263.928C455.71 240.459 453.208 247.063 461.498 266.291Z" fill="white"/>
</mask>
<g mask="url(#mask2_209_98)">
<path fill-rule="evenodd" clip-rule="evenodd" d="M370.912 288.747C381.6 287.203 399.304 290.081 405.372 299.991C408.85 305.668 407.708 312.431 409.37 318.644C413.067 332.493 425.964 345.803 441.165 345.252C459.771 344.597 465.812 319.679 469.342 305.517C474.067 286.46 478.749 262.004 462.802 246.841C459.946 244.128 456.683 241.984 453.169 240.255C448.504 237.98 443.526 236.418 438.398 235.622C432.001 234.595 425.336 234.551 418.948 235.699C408.445 237.604 398.678 242.954 390.554 249.772C380.028 258.642 372.355 269.577 366.259 281.84L370.912 288.747Z" fill="url(#paint5_linear_209_98)"/>
</g>
<path fill-rule="evenodd" clip-rule="evenodd" d="M482.612 242.27C533.462 246.746 550.652 247.874 547.934 341.988C545.188 437.963 419.213 434.593 419.213 434.593C419.213 434.593 437.711 374.563 422.857 323.372C404.896 261.581 446.691 239.104 482.612 242.27Z" fill="url(#paint6_linear_209_98)"/>
<path fill-rule="evenodd" clip-rule="evenodd" d="M358.293 219.542C358.289 215.095 356.523 210.831 353.382 207.687C350.241 204.543 345.981 202.775 341.539 202.771H246.214C241.769 202.771 237.505 204.539 234.362 207.685C231.218 210.832 229.452 215.1 229.452 219.549C229.452 223.999 231.218 228.267 234.362 231.413C237.505 234.56 241.769 236.328 246.214 236.328H341.533C345.979 236.325 350.242 234.555 353.385 231.408C356.527 228.26 358.293 223.992 358.293 219.542Z" fill="#ABDBFF"/>
<path fill-rule="evenodd" clip-rule="evenodd" d="M281.91 236.312C281.752 234.441 285.788 227.978 287.469 226.974C289.087 226.021 291.819 228.459 291.993 230.328C292.166 232.198 290.108 237.2 288.427 238.195C286.746 239.19 282.066 238.185 281.91 236.312Z" fill="#FB9C9A"/>
<path fill-rule="evenodd" clip-rule="evenodd" d="M474.593 165.975C474.593 165.975 477.89 173.272 475.503 179.024C474.874 180.548 473.408 181.648 472.205 182.747C469.142 185.534 465.294 187.016 461.979 189.383C460.991 190.079 458.886 191.426 459.011 192.873C459.184 194.559 462.499 193.766 463.409 193.494C466.99 192.423 469.818 191.154 471.75 194.066C473.713 197.046 472.142 204.378 470.117 209.344C469.755 210.224 468.121 213.956 469.991 214.329C471.2 214.566 472.276 213.163 472.927 212.374C474.831 210.057 475.329 202.148 477.214 199.796C478.094 198.712 479.446 197.473 480.702 199.43C484.565 205.473 480.67 211.692 476.367 213.762C471.185 216.268 470.524 228.899 470.524 228.899C470.524 228.899 481.77 232.424 485.256 223.372C491.428 225.522 503.13 224.047 503.052 212.128C514.14 207.526 519.234 190.107 508.832 184.081C510.34 183.348 511.265 181.202 511.674 179.715C515.931 164.698 498.387 147.855 481.863 157.273C478.219 159.372 475.565 162.047 474.593 165.975Z" fill="url(#paint7_linear_209_98)"/>
<path d="M319.204 524.998C350.279 524.998 375.47 499.783 375.47 468.678C375.47 437.573 350.279 412.357 319.204 412.357C288.13 412.357 262.939 437.573 262.939 468.678C262.939 499.783 288.13 524.998 319.204 524.998Z" fill="url(#paint8_linear_209_98)"/>
<path fill-rule="evenodd" clip-rule="evenodd" d="M286.237 473.596L304.865 496.846C305.63 497.801 306.606 498.563 307.717 499.073C308.828 499.583 310.042 499.827 311.264 499.784C312.485 499.742 313.68 499.415 314.753 498.83C315.826 498.244 316.748 497.417 317.445 496.412L352.235 446.232C353.376 444.517 353.798 442.423 353.413 440.399C353.027 438.376 351.863 436.584 350.171 435.411C348.48 434.237 346.396 433.775 344.367 434.124C342.339 434.472 340.528 435.604 339.325 437.275L310.536 478.801L298.489 463.765C297.186 462.138 295.291 461.097 293.221 460.869C291.151 460.641 289.076 461.246 287.451 462.55C285.826 463.854 284.786 465.75 284.558 467.822C284.33 469.894 284.934 471.972 286.237 473.598V473.596Z" fill="white"/>
<path fill-rule="evenodd" clip-rule="evenodd" d="M523.183 253.012C559.621 256.214 612.772 384.665 590.359 420.137C567.947 455.608 426.467 459.271 388.671 465.838C359.959 490.942 348.227 459.713 352.341 459.671C370.619 459.481 370.137 444.806 370.137 444.806C370.137 444.806 370.436 443.27 365.269 437.025C370.969 433.01 383.708 444.604 383.708 444.604C383.708 444.604 520.147 392.067 532.524 383.06C538.681 378.584 500.247 337.088 498.677 293.441C498.142 278.485 502.336 251.177 523.183 253.012Z" fill="url(#paint9_linear_209_98)"/>
<mask id="mask3_209_98" style="mask-type:luminance" maskUnits="userSpaceOnUse" x="351" y="252" width="245" height="224">
<path fill-rule="evenodd" clip-rule="evenodd" d="M523.183 253.012C559.621 256.214 612.772 384.665 590.359 420.137C567.947 455.608 426.467 459.271 388.671 465.838C359.959 490.942 348.227 459.713 352.341 459.671C370.619 459.481 370.137 444.806 370.137 444.806C370.137 444.806 370.436 443.27 365.269 437.025C370.969 433.01 383.708 444.604 383.708 444.604C383.708 444.604 520.147 392.067 532.524 383.06C538.681 378.584 500.247 337.088 498.677 293.441C498.142 278.485 502.336 251.177 523.183 253.012Z" fill="white"/>
</mask>
<g mask="url(#mask3_209_98)">
<path fill-rule="evenodd" clip-rule="evenodd" d="M499.885 343.472C503.608 333.324 514.545 319.102 526.146 318.465C532.79 318.099 538.193 322.316 544.444 323.801C558.376 327.123 576.202 322.086 582.94 308.433C591.201 291.733 572.166 274.576 561.392 264.744C546.879 251.524 527.608 235.777 506.701 242.637C502.964 243.859 499.524 245.719 496.337 247.994C492.121 251.022 488.382 254.666 485.247 258.804C481.306 263.949 478.101 269.8 476.076 275.973C472.761 286.128 472.824 297.273 474.96 307.667C477.755 321.154 483.718 333.107 491.609 344.301L499.885 343.472Z" fill="url(#paint10_linear_209_98)"/>
</g>
<path d="M243.817 225.224C242.962 225.22 242.227 225.01 241.61 224.592C240.997 224.175 240.525 223.57 240.193 222.778C239.865 221.986 239.703 221.033 239.706 219.919C239.706 218.809 239.87 217.862 240.198 217.08C240.53 216.298 241.002 215.703 241.615 215.295C242.232 214.884 242.966 214.679 243.817 214.679C244.669 214.679 245.402 214.884 246.015 215.295C246.631 215.706 247.105 216.303 247.437 217.085C247.768 217.864 247.932 218.809 247.929 219.919C247.929 221.036 247.763 221.991 247.432 222.783C247.104 223.575 246.633 224.18 246.02 224.597C245.407 225.015 244.673 225.224 243.817 225.224ZM243.817 223.439C244.401 223.439 244.866 223.146 245.214 222.559C245.563 221.972 245.735 221.092 245.732 219.919C245.732 219.147 245.652 218.504 245.493 217.99C245.337 217.476 245.115 217.09 244.827 216.832C244.542 216.573 244.205 216.444 243.817 216.444C243.237 216.444 242.773 216.734 242.425 217.314C242.077 217.894 241.902 218.762 241.898 219.919C241.898 220.701 241.976 221.354 242.132 221.878C242.291 222.398 242.515 222.789 242.803 223.051C243.092 223.31 243.43 223.439 243.817 223.439ZM253.456 225.224C252.601 225.22 251.865 225.01 251.249 224.592C250.636 224.175 250.163 223.57 249.832 222.778C249.504 221.986 249.341 221.033 249.345 219.919C249.345 218.809 249.509 217.862 249.837 217.08C250.168 216.298 250.641 215.703 251.254 215.295C251.87 214.884 252.604 214.679 253.456 214.679C254.308 214.679 255.04 214.884 255.654 215.295C256.27 215.706 256.744 216.303 257.075 217.085C257.407 217.864 257.571 218.809 257.568 219.919C257.568 221.036 257.402 221.991 257.07 222.783C256.742 223.575 256.272 224.18 255.659 224.597C255.045 225.015 254.311 225.224 253.456 225.224ZM253.456 223.439C254.039 223.439 254.505 223.146 254.853 222.559C255.201 221.972 255.374 221.092 255.37 219.919C255.37 219.147 255.291 218.504 255.132 217.99C254.976 217.476 254.754 217.09 254.465 216.832C254.18 216.573 253.844 216.444 253.456 216.444C252.876 216.444 252.412 216.734 252.064 217.314C251.716 217.894 251.54 218.762 251.537 219.919C251.537 220.701 251.615 221.354 251.771 221.878C251.93 222.398 252.154 222.789 252.442 223.051C252.73 223.31 253.068 223.439 253.456 223.439ZM263.095 225.224C262.24 225.22 261.504 225.01 260.887 224.592C260.274 224.175 259.802 223.57 259.471 222.778C259.142 221.986 258.98 221.033 258.983 219.919C258.983 218.809 259.147 217.862 259.475 217.08C259.807 216.298 260.279 215.703 260.892 215.295C261.509 214.884 262.243 214.679 263.095 214.679C263.947 214.679 264.679 214.884 265.292 215.295C265.909 215.706 266.383 216.303 266.714 217.085C267.046 217.864 267.21 218.809 267.206 219.919C267.206 221.036 267.041 221.991 266.709 222.783C266.381 223.575 265.91 224.18 265.297 224.597C264.684 225.015 263.95 225.224 263.095 225.224ZM263.095 223.439C263.678 223.439 264.144 223.146 264.492 222.559C264.84 221.972 265.012 221.092 265.009 219.919C265.009 219.147 264.929 218.504 264.77 217.99C264.614 217.476 264.392 217.09 264.104 216.832C263.819 216.573 263.483 216.444 263.095 216.444C262.515 216.444 262.051 216.734 261.703 217.314C261.355 217.894 261.179 218.762 261.176 219.919C261.176 220.701 261.254 221.354 261.409 221.878C261.569 222.398 261.792 222.789 262.081 223.051C262.369 223.31 262.707 223.439 263.095 223.439ZM272.733 225.224C271.878 225.22 271.143 225.01 270.526 224.592C269.913 224.175 269.441 223.57 269.109 222.778C268.781 221.986 268.619 221.033 268.622 219.919C268.622 218.809 268.786 217.862 269.114 217.08C269.446 216.298 269.918 215.703 270.531 215.295C271.148 214.884 271.882 214.679 272.733 214.679C273.585 214.679 274.318 214.884 274.931 215.295C275.547 215.706 276.021 216.303 276.353 217.085C276.684 217.864 276.848 218.809 276.845 219.919C276.845 221.036 276.679 221.991 276.348 222.783C276.02 223.575 275.549 224.18 274.936 224.597C274.323 225.015 273.589 225.224 272.733 225.224ZM272.733 223.439C273.317 223.439 273.782 223.146 274.131 222.559C274.479 221.972 274.651 221.092 274.648 219.919C274.648 219.147 274.568 218.504 274.409 217.99C274.253 217.476 274.031 217.09 273.743 216.832C273.458 216.573 273.121 216.444 272.733 216.444C272.153 216.444 271.689 216.734 271.341 217.314C270.993 217.894 270.818 218.762 270.814 219.919C270.814 220.701 270.892 221.354 271.048 221.878C271.207 222.398 271.431 222.789 271.719 223.051C272.008 223.31 272.346 223.439 272.733 223.439ZM282.372 225.224C281.517 225.22 280.781 225.01 280.165 224.592C279.552 224.175 279.079 223.57 278.748 222.778C278.42 221.986 278.257 221.033 278.261 219.919C278.261 218.809 278.425 217.862 278.753 217.08C279.084 216.298 279.557 215.703 280.17 215.295C280.786 214.884 281.52 214.679 282.372 214.679C283.224 214.679 283.956 214.884 284.57 215.295C285.186 215.706 285.66 216.303 285.991 217.085C286.323 217.864 286.487 218.809 286.484 219.919C286.484 221.036 286.318 221.991 285.987 222.783C285.658 223.575 285.188 224.18 284.575 224.597C283.961 225.015 283.227 225.224 282.372 225.224ZM282.372 223.439C282.955 223.439 283.421 223.146 283.769 222.559C284.117 221.972 284.29 221.092 284.286 219.919C284.286 219.147 284.207 218.504 284.048 217.99C283.892 217.476 283.67 217.09 283.381 216.832C283.096 216.573 282.76 216.444 282.372 216.444C281.792 216.444 281.328 216.734 280.98 217.314C280.632 217.894 280.456 218.762 280.453 219.919C280.453 220.701 280.531 221.354 280.687 221.878C280.846 222.398 281.07 222.789 281.358 223.051C281.646 223.31 281.984 223.439 282.372 223.439ZM296.037 219.069V220.749H291.393V219.069H296.037ZM305.054 225.224C304.199 225.22 303.463 225.01 302.846 224.592C302.233 224.175 301.761 223.57 301.43 222.778C301.101 221.986 300.939 221.033 300.942 219.919C300.942 218.809 301.106 217.862 301.434 217.08C301.766 216.298 302.238 215.703 302.851 215.295C303.468 214.884 304.202 214.679 305.054 214.679C305.906 214.679 306.638 214.884 307.251 215.295C307.868 215.706 308.342 216.303 308.673 217.085C309.005 217.864 309.169 218.809 309.165 219.919C309.165 221.036 309 221.991 308.668 222.783C308.34 223.575 307.869 224.18 307.256 224.597C306.643 225.015 305.909 225.224 305.054 225.224ZM305.054 223.439C305.637 223.439 306.103 223.146 306.451 222.559C306.799 221.972 306.971 221.092 306.968 219.919C306.968 219.147 306.888 218.504 306.729 217.99C306.573 217.476 306.351 217.09 306.063 216.832C305.778 216.573 305.442 216.444 305.054 216.444C304.474 216.444 304.01 216.734 303.662 217.314C303.314 217.894 303.138 218.762 303.135 219.919C303.135 220.701 303.213 221.354 303.368 221.878C303.528 222.398 303.751 222.789 304.04 223.051C304.328 223.31 304.666 223.439 305.054 223.439ZM314.692 225.224C313.837 225.22 313.102 225.01 312.485 224.592C311.872 224.175 311.4 223.57 311.068 222.778C310.74 221.986 310.578 221.033 310.581 219.919C310.581 218.809 310.745 217.862 311.073 217.08C311.405 216.298 311.877 215.703 312.49 215.295C313.107 214.884 313.841 214.679 314.692 214.679C315.544 214.679 316.277 214.884 316.89 215.295C317.506 215.706 317.98 216.303 318.312 217.085C318.643 217.864 318.807 218.809 318.804 219.919C318.804 221.036 318.638 221.991 318.307 222.783C317.979 223.575 317.508 224.18 316.895 224.597C316.282 225.015 315.548 225.224 314.692 225.224ZM314.692 223.439C315.276 223.439 315.741 223.146 316.089 222.559C316.438 221.972 316.61 221.092 316.607 219.919C316.607 219.147 316.527 218.504 316.368 217.99C316.212 217.476 315.99 217.09 315.702 216.832C315.417 216.573 315.08 216.444 314.692 216.444C314.112 216.444 313.648 216.734 313.3 217.314C312.952 217.894 312.777 218.762 312.773 219.919C312.773 220.701 312.851 221.354 313.007 221.878C313.166 222.398 313.39 222.789 313.678 223.051C313.967 223.31 314.305 223.439 314.692 223.439ZM324.331 225.224C323.476 225.22 322.74 225.01 322.124 224.592C321.511 224.175 321.038 223.57 320.707 222.778C320.379 221.986 320.216 221.033 320.22 219.919C320.22 218.809 320.384 217.862 320.712 217.08C321.043 216.298 321.516 215.703 322.129 215.295C322.745 214.884 323.479 214.679 324.331 214.679C325.183 214.679 325.915 214.884 326.529 215.295C327.145 215.706 327.619 216.303 327.95 217.085C328.282 217.864 328.446 218.809 328.443 219.919C328.443 221.036 328.277 221.991 327.945 222.783C327.617 223.575 327.147 224.18 326.534 224.597C325.92 225.015 325.186 225.224 324.331 225.224ZM324.331 223.439C324.914 223.439 325.38 223.146 325.728 222.559C326.076 221.972 326.249 221.092 326.245 219.919C326.245 219.147 326.166 218.504 326.007 217.99C325.851 217.476 325.629 217.09 325.34 216.832C325.055 216.573 324.719 216.444 324.331 216.444C323.751 216.444 323.287 216.734 322.939 217.314C322.591 217.894 322.415 218.762 322.412 219.919C322.412 220.701 322.49 221.354 322.646 221.878C322.805 222.398 323.029 222.789 323.317 223.051C323.605 223.31 323.943 223.439 324.331 223.439ZM333.97 225.224C333.115 225.22 332.379 225.01 331.762 224.592C331.149 224.175 330.677 223.57 330.346 222.778C330.017 221.986 329.855 221.033 329.858 219.919C329.858 218.809 330.022 217.862 330.35 217.08C330.682 216.298 331.154 215.703 331.767 215.295C332.384 214.884 333.118 214.679 333.97 214.679C334.822 214.679 335.554 214.884 336.167 215.295C336.784 215.706 337.258 216.303 337.589 217.085C337.921 217.864 338.085 218.809 338.081 219.919C338.081 221.036 337.916 221.991 337.584 222.783C337.256 223.575 336.785 224.18 336.172 224.597C335.559 225.015 334.825 225.224 333.97 225.224ZM333.97 223.439C334.553 223.439 335.019 223.146 335.367 222.559C335.715 221.972 335.887 221.092 335.884 219.919C335.884 219.147 335.804 218.504 335.645 217.99C335.489 217.476 335.267 217.09 334.979 216.832C334.694 216.573 334.358 216.444 333.97 216.444C333.39 216.444 332.926 216.734 332.578 217.314C332.23 217.894 332.054 218.762 332.051 219.919C332.051 220.701 332.129 221.354 332.284 221.878C332.444 222.398 332.667 222.789 332.956 223.051C333.244 223.31 333.582 223.439 333.97 223.439ZM343.608 225.224C342.753 225.22 342.018 225.01 341.401 224.592C340.788 224.175 340.316 223.57 339.984 222.778C339.656 221.986 339.494 221.033 339.497 219.919C339.497 218.809 339.661 217.862 339.989 217.08C340.321 216.298 340.793 215.703 341.406 215.295C342.023 214.884 342.757 214.679 343.608 214.679C344.46 214.679 345.193 214.884 345.806 215.295C346.422 215.706 346.896 216.303 347.228 217.085C347.559 217.864 347.723 218.809 347.72 219.919C347.72 221.036 347.554 221.991 347.223 222.783C346.895 223.575 346.424 224.18 345.811 224.597C345.198 225.015 344.464 225.224 343.608 225.224ZM343.608 223.439C344.192 223.439 344.657 223.146 345.006 222.559C345.354 221.972 345.526 221.092 345.523 219.919C345.523 219.147 345.443 218.504 345.284 217.99C345.128 217.476 344.906 217.09 344.618 216.832C344.333 216.573 343.996 216.444 343.608 216.444C343.028 216.444 342.564 216.734 342.216 217.314C341.868 217.894 341.693 218.762 341.689 219.919C341.689 220.701 341.767 221.354 341.923 221.878C342.082 222.398 342.306 222.789 342.594 223.051C342.883 223.31 343.221 223.439 343.608 223.439Z" fill="#727272"/>
</g>
<defs>
<linearGradient id="paint0_linear_209_98" x1="8.93018" y1="169.068" x2="153.775" y2="416.439" gradientUnits="userSpaceOnUse">
<stop stop-color="#DBE9F9"/>
<stop offset="0.61" stop-color="#C1E9FA"/>
<stop offset="0.82" stop-color="#85C8FB"/>
<stop offset="1" stop-color="#468FFD"/>
</linearGradient>
<linearGradient id="paint1_linear_209_98" x1="168.967" y1="239.691" x2="138.913" y2="293.92" gradientUnits="userSpaceOnUse">
<stop stop-color="#AADBFF"/>
<stop offset="1" stop-color="#0500E3"/>
</linearGradient>
<linearGradient id="paint2_linear_209_98" x1="187.287" y1="200.191" x2="155.518" y2="262.855" gradientUnits="userSpaceOnUse">
<stop stop-color="#AADBFF"/>
<stop offset="1" stop-color="#0500E3"/>
</linearGradient>
<linearGradient id="paint3_linear_209_98" x1="449.875" y1="173.221" x2="491.119" y2="235.652" gradientUnits="userSpaceOnUse">
<stop stop-color="#FB9C9A"/>
<stop offset="0.64" stop-color="#FC8886"/>
<stop offset="0.84" stop-color="#FD5450"/>
<stop offset="1" stop-color="#FF1712"/>
</linearGradient>
<linearGradient id="paint4_linear_209_98" x1="339.279" y1="318.332" x2="505.003" y2="318.332" gradientUnits="userSpaceOnUse">
<stop stop-color="#FB9C9A"/>
<stop offset="0.63" stop-color="#FC8784"/>
<stop offset="0.83" stop-color="#FD524E"/>
<stop offset="1" stop-color="#FF1712"/>
</linearGradient>
<linearGradient id="paint5_linear_209_98" x1="416.33" y1="263.536" x2="456.509" y2="336.738" gradientUnits="userSpaceOnUse">
<stop stop-color="#20238C"/>
<stop offset="0.54" stop-color="#1A1D7F"/>
<stop offset="1" stop-color="#050751"/>
</linearGradient>
<linearGradient id="paint6_linear_209_98" x1="429.794" y1="274.709" x2="525.912" y2="411.876" gradientUnits="userSpaceOnUse">
<stop stop-color="#20238C"/>
<stop offset="0.51" stop-color="#191C7E"/>
<stop offset="1" stop-color="#050751"/>
</linearGradient>
<linearGradient id="paint7_linear_209_98" x1="471.905" y1="225.521" x2="509.557" y2="154.197" gradientUnits="userSpaceOnUse">
<stop/>
<stop offset="1" stop-color="#4D4D4D"/>
</linearGradient>
<linearGradient id="paint8_linear_209_98" x1="342.089" y1="415.919" x2="287.171" y2="546.576" gradientUnits="userSpaceOnUse">
<stop stop-color="#AADBFF"/>
<stop offset="0.6" stop-color="#92D1FF"/>
<stop offset="0.81" stop-color="#5BB9FF"/>
<stop offset="1" stop-color="#22A1FF"/>
</linearGradient>
<linearGradient id="paint9_linear_209_98" x1="522.848" y1="364.262" x2="654.807" y2="364.262" gradientUnits="userSpaceOnUse">
<stop stop-color="#FB9C9A"/>
<stop offset="0.47" stop-color="#FC7875"/>
<stop offset="1" stop-color="#FF1712"/>
</linearGradient>
<linearGradient id="paint10_linear_209_98" x1="540.487" y1="252.676" x2="508.526" y2="355.985" gradientUnits="userSpaceOnUse">
<stop stop-color="#20238C"/>
<stop offset="0.49" stop-color="#191C7D"/>
<stop offset="1" stop-color="#050751"/>
</linearGradient>
<clipPath id="clip0_209_98">
<rect width="597" height="525" fill="white"/>
</clipPath>
</defs>
</svg>
