<svg width="489" height="480" viewBox="0 0 489 480" fill="none" xmlns="http://www.w3.org/2000/svg">
<path d="M400.554 449.188C446.982 449.188 484.619 411.558 484.619 365.14C484.619 318.721 446.982 281.091 400.554 281.091C354.126 281.091 316.489 318.721 316.489 365.14C316.489 411.558 354.126 449.188 400.554 449.188Z" fill="#F0F8FF"/>
<path d="M4.17272 133.689C-7.8466 163.97 6.97723 198.254 37.2579 210.267C44.4389 213.125 52.1129 214.541 59.8413 214.432C67.5697 214.323 75.2008 212.692 82.2983 209.632C95.8303 225.67 113.131 238.1 132.649 245.809C198.052 271.75 272.107 239.767 298.051 174.376C323.995 108.986 292.009 34.9454 226.604 9.00875C161.199 -16.9279 87.1401 15.0473 61.2024 80.4396C59.1236 85.6798 57.3918 91.051 56.0181 96.5183C33.6741 97.668 12.9628 111.538 4.17272 133.689Z" fill="#F0F7FF"/>
<path d="M300.888 474.462H168.585L192.96 381.341H276.512L300.888 474.462Z" fill="#435E6D"/>
<path d="M41.667 365.142V395.635C41.667 400.263 43.5059 404.702 46.7792 407.974C50.0524 411.247 54.4919 413.085 59.121 413.085H410.362C414.991 413.085 419.43 411.246 422.703 407.974C425.976 404.701 427.815 400.263 427.816 395.635V365.142H41.667Z" fill="#2D4351"/>
<path d="M390.88 390.446C391.729 386.85 389.502 383.247 385.906 382.399C382.309 381.55 378.706 383.777 377.857 387.373C377.008 390.968 379.235 394.571 382.832 395.42C386.428 396.268 390.032 394.041 390.88 390.446Z" fill="#E6EDFF"/>
<path d="M316.489 468.928H152.982V479.998H316.489V468.928Z" fill="#2D4351"/>
<g opacity="0.25" style="mix-blend-mode:multiply">
<path d="M184.651 413.085L183.291 418.279L289.54 431.111L284.822 413.085H184.651Z" fill="#1F3549"/>
</g>
<path d="M427.816 158.316V365.14H41.655V158.316C41.6553 156.401 42.0327 154.506 42.7656 152.738C43.4986 150.969 44.5727 149.363 45.9268 148.01C47.2808 146.656 48.8882 145.583 50.6572 144.851C52.4261 144.119 54.322 143.742 56.2365 143.743H413.238C417.104 143.743 420.812 145.278 423.545 148.011C426.279 150.744 427.815 154.45 427.816 158.316Z" fill="#48A7FF"/>
<g opacity="0.3" style="mix-blend-mode:multiply">
<path d="M351.667 274.781L140.092 266.95C137.352 266.849 135.049 268.987 134.948 271.726L132.726 331.74C132.624 334.479 134.763 336.782 137.503 336.883L349.078 344.714C351.818 344.815 354.121 342.677 354.222 339.938L356.444 279.924C356.546 277.185 354.407 274.882 351.667 274.781Z" fill="#A87818"/>
</g>
<path d="M342.274 263.632H130.554C127.812 263.632 125.59 265.854 125.59 268.595V328.65C125.59 331.391 127.812 333.613 130.554 333.613H342.274C345.016 333.613 347.238 331.391 347.238 328.65V268.595C347.238 265.854 345.016 263.632 342.274 263.632Z" fill="white"/>
<path d="M372.198 65.4463H285.523C280.465 65.4463 276.364 69.546 276.364 74.6032V237.335C276.364 242.392 280.465 246.492 285.523 246.492H372.198C377.257 246.492 381.357 242.392 381.357 237.335V74.6032C381.357 69.546 377.257 65.4463 372.198 65.4463Z" fill="#435E6D"/>
<path d="M348.586 72.7185H309.135C308.167 72.7185 307.382 73.5031 307.382 74.471V74.7354C307.382 75.7032 308.167 76.4878 309.135 76.4878H348.586C349.554 76.4878 350.339 75.7032 350.339 74.7354V74.471C350.339 73.5031 349.554 72.7185 348.586 72.7185Z" fill="white"/>
<path d="M183.221 294.947C183.136 294.57 182.978 294.214 182.756 293.899C182.534 293.584 182.252 293.315 181.926 293.109C181.6 292.903 181.237 292.763 180.857 292.697C180.477 292.631 180.087 292.641 179.711 292.725L169.777 294.955V285.774C169.777 284.995 169.468 284.248 168.917 283.697C168.366 283.147 167.619 282.837 166.84 282.837C166.061 282.837 165.314 283.147 164.764 283.697C164.213 284.248 163.904 284.995 163.904 285.774V294.955L153.97 292.725C153.593 292.641 153.204 292.631 152.824 292.697C152.444 292.763 152.081 292.904 151.755 293.11C151.429 293.316 151.147 293.585 150.925 293.9C150.703 294.215 150.545 294.571 150.461 294.948C150.376 295.324 150.367 295.713 150.433 296.093C150.499 296.473 150.639 296.836 150.846 297.162C151.052 297.487 151.32 297.769 151.636 297.991C151.951 298.213 152.307 298.371 152.683 298.455L162.077 300.564L156.025 309.874C155.6 310.527 155.452 311.322 155.613 312.084C155.774 312.846 156.232 313.513 156.885 313.938C157.538 314.363 158.334 314.511 159.096 314.35C159.859 314.189 160.526 313.731 160.951 313.078L166.84 304.017L172.73 313.078C172.997 313.489 173.362 313.826 173.793 314.06C174.223 314.293 174.706 314.415 175.196 314.414C175.765 314.416 176.322 314.251 176.798 313.939C177.122 313.729 177.401 313.458 177.619 313.14C177.837 312.822 177.991 312.464 178.071 312.087C178.152 311.71 178.157 311.321 178.086 310.942C178.016 310.563 177.872 310.201 177.662 309.878L171.61 300.568L181.003 298.459C181.763 298.287 182.423 297.821 182.839 297.162C183.255 296.503 183.392 295.706 183.221 294.947Z" fill="#435E6D"/>
<path d="M229.603 294.947C229.519 294.57 229.361 294.214 229.139 293.899C228.917 293.584 228.634 293.315 228.309 293.109C227.983 292.903 227.619 292.763 227.239 292.697C226.859 292.631 226.47 292.641 226.094 292.725L216.162 294.955V285.774C216.142 285.008 215.823 284.28 215.275 283.746C214.726 283.211 213.99 282.912 213.224 282.912C212.458 282.912 211.722 283.211 211.173 283.746C210.624 284.28 210.306 285.008 210.286 285.774V294.955L200.352 292.725C199.592 292.555 198.795 292.693 198.137 293.11C197.48 293.527 197.014 294.188 196.843 294.948C196.673 295.707 196.811 296.504 197.228 297.162C197.645 297.82 198.306 298.285 199.066 298.455L208.459 300.564L202.409 309.874C202.199 310.197 202.054 310.558 201.984 310.938C201.913 311.317 201.918 311.706 201.997 312.083C202.077 312.461 202.23 312.819 202.449 313.137C202.667 313.455 202.946 313.727 203.269 313.937C203.592 314.148 203.954 314.292 204.333 314.363C204.712 314.434 205.102 314.429 205.479 314.349C205.856 314.27 206.215 314.116 206.533 313.898C206.851 313.68 207.123 313.401 207.333 313.078L213.223 304.017L219.112 313.078C219.537 313.731 220.204 314.189 220.967 314.35C221.729 314.511 222.525 314.363 223.178 313.938C223.831 313.513 224.289 312.846 224.45 312.084C224.611 311.322 224.463 310.527 224.038 309.874L217.986 300.564L227.382 298.455C227.758 298.371 228.114 298.213 228.429 297.991C228.745 297.769 229.013 297.487 229.219 297.161C229.426 296.835 229.566 296.472 229.632 296.092C229.697 295.712 229.688 295.323 229.603 294.947Z" fill="#435E6D"/>
<path d="M275.986 294.947C275.901 294.57 275.744 294.214 275.522 293.899C275.3 293.584 275.018 293.315 274.692 293.109C274.366 292.903 274.003 292.763 273.623 292.697C273.243 292.631 272.854 292.641 272.478 292.725L262.544 294.955V285.774C262.524 285.008 262.206 284.28 261.657 283.746C261.108 283.211 260.372 282.912 259.606 282.912C258.84 282.912 258.104 283.211 257.556 283.746C257.007 284.28 256.689 285.008 256.669 285.774V294.955L246.737 292.725C246.36 292.641 245.971 292.631 245.591 292.697C245.211 292.763 244.848 292.903 244.522 293.109C244.196 293.315 243.914 293.584 243.692 293.899C243.469 294.214 243.312 294.57 243.227 294.947C243.142 295.323 243.133 295.712 243.199 296.092C243.265 296.472 243.405 296.835 243.611 297.161C243.817 297.487 244.086 297.769 244.401 297.991C244.716 298.213 245.072 298.371 245.449 298.455L254.842 300.564L248.8 309.874C248.375 310.527 248.227 311.322 248.388 312.084C248.549 312.846 249.007 313.513 249.66 313.938C250.314 314.363 251.109 314.511 251.871 314.35C252.634 314.189 253.301 313.731 253.726 313.078L259.615 304.017L265.505 313.078C265.93 313.731 266.597 314.188 267.359 314.349C268.121 314.51 268.916 314.362 269.569 313.937C270.222 313.512 270.68 312.846 270.841 312.083C271.002 311.321 270.854 310.526 270.429 309.874L264.379 300.564L273.772 298.455C274.531 298.283 275.19 297.817 275.605 297.159C276.02 296.501 276.157 295.705 275.986 294.947Z" fill="#435E6D"/>
<path d="M322.37 294.947C322.286 294.57 322.128 294.214 321.906 293.899C321.684 293.584 321.402 293.315 321.076 293.109C320.75 292.903 320.386 292.763 320.006 292.697C319.626 292.631 319.237 292.641 318.861 292.725L308.927 294.955V285.774C308.927 284.995 308.617 284.248 308.066 283.697C307.516 283.147 306.769 282.837 305.99 282.837C305.211 282.837 304.464 283.147 303.913 283.697C303.363 284.248 303.053 284.995 303.053 285.774V294.955L293.119 292.725C292.743 292.641 292.354 292.631 291.974 292.697C291.594 292.763 291.23 292.904 290.905 293.11C290.579 293.316 290.297 293.585 290.075 293.9C289.853 294.215 289.695 294.571 289.611 294.948C289.526 295.324 289.517 295.713 289.583 296.093C289.649 296.473 289.789 296.836 289.995 297.162C290.202 297.487 290.47 297.769 290.785 297.991C291.101 298.213 291.457 298.371 291.833 298.455L301.226 300.564L295.175 309.874C294.964 310.197 294.82 310.559 294.75 310.938C294.68 311.317 294.685 311.706 294.765 312.083C294.845 312.46 294.999 312.818 295.217 313.136C295.436 313.454 295.714 313.725 296.038 313.935C296.514 314.247 297.071 314.412 297.64 314.41C298.13 314.411 298.613 314.289 299.043 314.056C299.474 313.822 299.84 313.485 300.106 313.074L305.996 304.013L311.885 313.074C312.31 313.727 312.978 314.185 313.74 314.346C314.502 314.507 315.298 314.359 315.951 313.934C316.604 313.509 317.062 312.842 317.223 312.08C317.384 311.318 317.236 310.523 316.811 309.87L310.76 300.56L320.153 298.451C320.911 298.279 321.569 297.813 321.985 297.157C322.4 296.5 322.539 295.705 322.37 294.947Z" fill="#435E6D"/>
<path d="M327.801 124.117V187.317C327.802 188.427 328.243 189.492 329.029 190.277C329.814 191.062 330.879 191.502 331.99 191.502H360.121C360.784 191.503 361.438 191.66 362.029 191.962C362.62 192.265 363.13 192.703 363.518 193.241C363.906 193.779 364.161 194.401 364.261 195.057C364.362 195.713 364.305 196.383 364.095 197.012L355.926 209.812C355.599 210.305 355.4 210.872 355.347 211.461C355.147 214.425 358.198 216.818 361.157 215.564L410.153 191.833C410.669 191.615 411.224 191.503 411.784 191.502H484.805C485.355 191.502 485.9 191.394 486.408 191.184C486.916 190.973 487.377 190.665 487.766 190.276C488.155 189.888 488.463 189.426 488.673 188.918C488.884 188.411 488.992 187.866 488.992 187.317V124.117C488.992 123.568 488.884 123.023 488.673 122.515C488.463 122.008 488.155 121.546 487.766 121.157C487.377 120.769 486.916 120.46 486.408 120.25C485.9 120.04 485.355 119.931 484.805 119.931H331.99C330.879 119.931 329.814 120.372 329.029 121.157C328.243 121.942 327.802 123.007 327.801 124.117Z" fill="#2D4351"/>
<path d="M366.461 153.144C366.33 152.56 365.972 152.052 365.467 151.732C364.961 151.411 364.349 151.305 363.765 151.436L356.132 153.15V146.096C356.141 145.794 356.09 145.494 355.98 145.212C355.871 144.93 355.706 144.674 355.496 144.457C355.285 144.24 355.033 144.068 354.755 143.95C354.477 143.832 354.178 143.772 353.876 143.772C353.574 143.772 353.275 143.832 352.996 143.95C352.718 144.068 352.466 144.24 352.256 144.457C352.045 144.674 351.881 144.93 351.771 145.212C351.662 145.494 351.61 145.794 351.619 146.096V153.15L343.987 151.436C343.402 151.304 342.79 151.411 342.284 151.731C341.778 152.052 341.42 152.56 341.289 153.144C341.157 153.728 341.264 154.341 341.584 154.847C341.905 155.353 342.413 155.711 342.997 155.842L350.209 157.462L345.559 164.614C345.388 164.863 345.267 165.143 345.206 165.438C345.144 165.734 345.143 166.039 345.201 166.335C345.259 166.631 345.377 166.913 345.546 167.163C345.715 167.413 345.932 167.626 346.186 167.791C346.439 167.956 346.722 168.068 347.02 168.121C347.317 168.174 347.622 168.167 347.916 168.1C348.211 168.033 348.489 167.908 348.734 167.731C348.979 167.555 349.186 167.332 349.343 167.074L353.869 160.112L358.394 167.074C358.723 167.57 359.234 167.916 359.817 168.037C360.4 168.158 361.007 168.044 361.506 167.719C362.005 167.395 362.356 166.887 362.482 166.306C362.608 165.724 362.5 165.116 362.18 164.614L357.531 157.462L364.742 155.842C365.033 155.778 365.307 155.658 365.551 155.487C365.795 155.317 366.002 155.101 366.162 154.85C366.322 154.599 366.43 154.32 366.482 154.027C366.533 153.734 366.526 153.434 366.461 153.144Z" fill="#E6EDFF"/>
<path d="M402.812 153.144C402.68 152.56 402.323 152.052 401.817 151.732C401.312 151.411 400.699 151.305 400.115 151.436L392.483 153.15V146.096C392.492 145.794 392.44 145.494 392.331 145.212C392.222 144.93 392.057 144.674 391.846 144.457C391.636 144.24 391.384 144.068 391.106 143.95C390.828 143.832 390.528 143.772 390.226 143.772C389.924 143.772 389.625 143.832 389.347 143.95C389.069 144.068 388.817 144.24 388.606 144.457C388.396 144.674 388.231 144.93 388.122 145.212C388.012 145.494 387.961 145.794 387.97 146.096V153.15L380.337 151.436C379.753 151.304 379.14 151.411 378.634 151.731C378.128 152.052 377.77 152.56 377.639 153.144C377.508 153.728 377.614 154.341 377.935 154.847C378.255 155.353 378.763 155.711 379.348 155.842L386.559 157.462L381.91 164.614C381.738 164.863 381.618 165.143 381.556 165.438C381.495 165.734 381.493 166.039 381.552 166.335C381.61 166.631 381.727 166.913 381.896 167.163C382.065 167.413 382.283 167.626 382.536 167.791C382.789 167.956 383.073 168.068 383.37 168.121C383.667 168.174 383.972 168.167 384.267 168.1C384.561 168.033 384.839 167.908 385.084 167.731C385.33 167.555 385.537 167.332 385.694 167.074L390.227 160.11L394.753 167.072C395.081 167.568 395.593 167.914 396.176 168.035C396.758 168.156 397.365 168.042 397.864 167.717C398.363 167.393 398.714 166.885 398.841 166.304C398.967 165.722 398.858 165.114 398.539 164.612L393.889 157.46L401.101 155.84C401.39 155.775 401.664 155.654 401.907 155.484C402.149 155.313 402.356 155.097 402.515 154.846C402.674 154.596 402.782 154.317 402.833 154.025C402.883 153.733 402.876 153.433 402.812 153.144Z" fill="#E6EDFF"/>
<path d="M439.162 153.144C439.031 152.56 438.673 152.052 438.168 151.732C437.662 151.411 437.05 151.305 436.466 151.436L428.833 153.15V146.096C428.842 145.794 428.791 145.494 428.681 145.212C428.572 144.93 428.407 144.674 428.197 144.457C427.986 144.24 427.734 144.068 427.456 143.95C427.178 143.832 426.879 143.772 426.577 143.772C426.275 143.772 425.975 143.832 425.697 143.95C425.419 144.068 425.167 144.24 424.957 144.457C424.746 144.674 424.581 144.93 424.472 145.212C424.363 145.494 424.311 145.794 424.32 146.096V153.15L416.688 151.436C416.103 151.304 415.491 151.411 414.985 151.731C414.479 152.052 414.121 152.56 413.989 153.144C413.858 153.728 413.964 154.341 414.285 154.847C414.605 155.353 415.114 155.711 415.698 155.842L422.91 157.462L418.272 164.612C418.101 164.861 417.98 165.141 417.919 165.436C417.857 165.732 417.855 166.037 417.914 166.333C417.972 166.629 418.09 166.911 418.259 167.161C418.428 167.411 418.645 167.624 418.898 167.789C419.152 167.954 419.435 168.066 419.732 168.119C420.03 168.172 420.335 168.165 420.629 168.098C420.923 168.031 421.201 167.906 421.447 167.729C421.692 167.553 421.899 167.33 422.056 167.072L426.582 160.11L431.093 167.072C431.25 167.33 431.457 167.553 431.703 167.729C431.948 167.906 432.226 168.031 432.52 168.098C432.815 168.165 433.12 168.172 433.417 168.119C433.714 168.066 433.998 167.954 434.251 167.789C434.504 167.624 434.722 167.411 434.891 167.161C435.06 166.911 435.177 166.629 435.235 166.333C435.294 166.037 435.292 165.732 435.231 165.436C435.169 165.141 435.049 164.861 434.877 164.612L430.23 157.46L437.441 155.84C437.731 155.776 438.006 155.656 438.25 155.486C438.494 155.316 438.701 155.1 438.861 154.849C439.021 154.599 439.13 154.319 439.182 154.027C439.233 153.734 439.227 153.434 439.162 153.144Z" fill="#E6EDFF"/>
<path d="M475.512 153.144C475.381 152.56 475.024 152.052 474.518 151.732C474.012 151.411 473.4 151.305 472.816 151.436L465.184 153.15V146.096C465.193 145.794 465.141 145.494 465.032 145.212C464.922 144.93 464.758 144.674 464.547 144.457C464.337 144.24 464.085 144.068 463.807 143.95C463.528 143.832 463.229 143.772 462.927 143.772C462.625 143.772 462.326 143.832 462.048 143.95C461.77 144.068 461.518 144.24 461.307 144.457C461.097 144.674 460.932 144.93 460.823 145.212C460.713 145.494 460.662 145.794 460.671 146.096V153.15L453.038 151.436C452.454 151.304 451.841 151.411 451.335 151.731C450.829 152.052 450.471 152.56 450.34 153.144C450.209 153.728 450.315 154.341 450.636 154.847C450.956 155.353 451.464 155.711 452.049 155.842L459.26 157.462L454.611 164.614C454.439 164.863 454.319 165.143 454.257 165.438C454.196 165.734 454.194 166.039 454.252 166.335C454.311 166.631 454.428 166.913 454.597 167.163C454.766 167.413 454.984 167.626 455.237 167.791C455.49 167.956 455.774 168.068 456.071 168.121C456.368 168.174 456.673 168.167 456.968 168.1C457.262 168.033 457.54 167.908 457.785 167.731C458.03 167.555 458.238 167.332 458.395 167.074L462.92 160.112L467.446 167.074C467.603 167.332 467.81 167.555 468.055 167.731C468.3 167.908 468.578 168.033 468.873 168.1C469.167 168.167 469.472 168.174 469.769 168.121C470.067 168.068 470.35 167.956 470.603 167.791C470.857 167.626 471.074 167.413 471.243 167.163C471.412 166.913 471.53 166.631 471.588 166.335C471.646 166.039 471.645 165.734 471.583 165.438C471.522 165.143 471.401 164.863 471.23 164.614L466.582 157.462L473.794 155.842C474.084 155.778 474.359 155.658 474.603 155.487C474.846 155.317 475.054 155.101 475.214 154.85C475.373 154.599 475.482 154.32 475.533 154.027C475.584 153.734 475.577 153.434 475.512 153.144Z" fill="#E6EDFF"/>
<path d="M106.319 246.985C84.7022 246.985 67.116 229.402 67.116 207.787C67.116 186.173 84.7022 168.592 106.319 168.592C112.977 168.589 119.526 170.28 125.35 173.505C125.751 173.729 126.105 174.029 126.39 174.389C126.676 174.749 126.887 175.162 127.013 175.604C127.139 176.046 127.176 176.509 127.124 176.965C127.071 177.422 126.928 177.863 126.705 178.265C126.481 178.666 126.181 179.02 125.82 179.305C125.46 179.59 125.047 179.802 124.605 179.928C124.163 180.054 123.7 180.091 123.244 180.038C122.787 179.985 122.346 179.843 121.944 179.62C117.162 176.972 111.785 175.584 106.319 175.586C88.5604 175.586 74.1112 190.032 74.1112 207.787C74.1112 225.542 88.5604 239.989 106.319 239.989C124.078 239.989 138.527 225.544 138.527 207.787C138.527 206.053 138.389 204.322 138.114 202.61C138.041 202.157 138.058 201.693 138.163 201.246C138.269 200.799 138.462 200.378 138.731 200.005C139 199.633 139.34 199.317 139.731 199.076C140.122 198.835 140.556 198.673 141.01 198.599C141.463 198.526 141.927 198.543 142.374 198.649C142.821 198.755 143.243 198.948 143.615 199.216C143.988 199.485 144.304 199.825 144.545 200.216C144.786 200.607 144.948 201.041 145.021 201.495C145.355 203.576 145.524 205.68 145.524 207.787C145.524 229.402 127.936 246.985 106.319 246.985Z" fill="#2D4351"/>
<path d="M102.803 222.31C101.876 222.31 100.986 221.942 100.329 221.286L89.3718 210.329C88.7302 209.67 88.3739 208.785 88.38 207.866C88.3861 206.947 88.7541 206.067 89.4043 205.417C90.0546 204.766 90.9347 204.398 91.8543 204.392C92.7739 204.386 93.6589 204.742 94.3177 205.384L102.803 213.866L151.059 165.63C151.384 165.305 151.769 165.048 152.194 164.872C152.618 164.696 153.073 164.606 153.533 164.606C153.992 164.606 154.447 164.697 154.871 164.872C155.296 165.048 155.681 165.306 156.006 165.631C156.331 165.956 156.588 166.341 156.764 166.766C156.94 167.19 157.03 167.645 157.03 168.104C157.03 168.563 156.939 169.018 156.763 169.442C156.587 169.867 156.33 170.252 156.005 170.577L105.277 221.29C104.952 221.614 104.566 221.871 104.142 222.046C103.717 222.221 103.262 222.311 102.803 222.31Z" fill="#2D4351"/>
<g opacity="0.3" style="mix-blend-mode:multiply">
<path d="M134.773 327.783L92.5048 326.221C92.0794 326.205 91.6613 326.106 91.2743 325.928C90.8873 325.751 90.5391 325.499 90.2495 325.187C89.9598 324.875 89.7345 324.509 89.5863 324.111C89.4381 323.712 89.37 323.287 89.3858 322.862L90.9483 280.602C90.9641 280.177 91.0634 279.759 91.2406 279.373C91.4179 278.986 91.6696 278.638 91.9814 278.349C92.2931 278.059 92.6589 277.834 93.0577 277.686C93.4565 277.538 93.8806 277.47 94.3057 277.486L136.574 279.046C137.431 279.078 138.241 279.448 138.825 280.076C139.41 280.704 139.722 281.538 139.693 282.395L138.13 324.655C138.116 325.081 138.018 325.5 137.841 325.888C137.665 326.276 137.413 326.625 137.101 326.916C136.789 327.206 136.423 327.433 136.023 327.581C135.624 327.73 135.199 327.799 134.773 327.783Z" fill="#A87818"/>
</g>
<path d="M131.495 274.237H89.1934C87.4033 274.237 85.9521 275.688 85.9521 277.478V319.772C85.9521 321.561 87.4033 323.012 89.1934 323.012H131.495C133.285 323.012 134.737 321.561 134.737 319.772V277.478C134.737 275.688 133.285 274.237 131.495 274.237Z" fill="#2D4351"/>
<path d="M121.569 297.518C121.449 297.199 121.235 296.925 120.956 296.73C120.676 296.535 120.344 296.43 120.003 296.429H118.615V291.68C118.614 290.594 118.399 289.518 117.983 288.515C117.566 287.512 116.956 286.6 116.187 285.833C115.418 285.065 114.506 284.457 113.502 284.042C112.498 283.627 111.422 283.414 110.335 283.414C109.249 283.415 108.173 283.63 107.17 284.046C106.166 284.463 105.255 285.073 104.487 285.841C103.719 286.61 103.111 287.522 102.696 288.526C102.28 289.53 102.067 290.606 102.068 291.692V296.439H100.68C100.338 296.441 100.005 296.547 99.7254 296.743C99.4454 296.939 99.2312 297.214 99.1113 297.534C98.418 299.354 98.1777 301.316 98.4109 303.25C98.6442 305.183 99.344 307.031 100.45 308.634C101.556 310.238 103.036 311.548 104.761 312.453C106.486 313.357 108.405 313.829 110.353 313.828C112.302 313.826 114.22 313.351 115.944 312.444C117.667 311.536 119.145 310.224 120.248 308.619C121.352 307.014 122.049 305.164 122.279 303.23C122.509 301.296 122.266 299.335 121.569 297.516V297.518ZM111.379 307.074C111.379 307.348 111.27 307.611 111.076 307.804C110.882 307.998 110.619 308.107 110.345 308.107C110.071 308.107 109.808 307.998 109.614 307.804C109.421 307.611 109.312 307.348 109.312 307.074V304.638C108.845 304.406 108.47 304.022 108.248 303.549C108.026 303.077 107.971 302.544 108.09 302.036C108.21 301.528 108.497 301.075 108.907 300.751C109.316 300.427 109.822 300.251 110.344 300.251C110.866 300.251 111.373 300.427 111.782 300.751C112.191 301.075 112.479 301.528 112.599 302.036C112.718 302.544 112.662 303.077 112.441 303.549C112.219 304.022 111.844 304.406 111.377 304.638L111.379 307.074ZM104.838 291.69C104.825 290.959 104.956 290.233 105.226 289.554C105.496 288.875 105.899 288.257 106.411 287.735C106.923 287.213 107.534 286.799 108.208 286.516C108.882 286.233 109.605 286.087 110.336 286.087C111.067 286.087 111.791 286.233 112.465 286.516C113.139 286.799 113.75 287.213 114.262 287.735C114.773 288.257 115.176 288.875 115.446 289.554C115.716 290.233 115.848 290.959 115.834 291.69V296.439H104.837L104.838 291.69Z" fill="#E6EDFF"/>
</svg>
